<svg xmlns="http://www.w3.org/2000/svg" viewBox="0 0 1200 700" fill="none" stroke="#ffffff" stroke-width="2.5">
  <rect x="40" y="40" width="1120" height="620" rx="6"/>
  <line x1="600" y1="40" x2="600" y2="660"/>
  <circle cx="600" cy="350" r="95"/>
  <circle cx="600" cy="350" r="6" fill="#ffffff" stroke="none"/>
  <rect x="40" y="200" width="150" height="300"/>
  <rect x="40" y="275" width="65" height="150"/>
  <circle cx="125" cy="350" r="6" fill="#ffffff" stroke="none"/>
  <path d="M190 270 A 90 90 0 0 1 190 430"/>
  <rect x="1010" y="200" width="150" height="300"/>
  <rect x="1095" y="275" width="65" height="150"/>
  <circle cx="1075" cy="350" r="6" fill="#ffffff" stroke="none"/>
  <path d="M1010 270 A 90 90 0 0 0 1010 430"/>
  <path d="M40 70 A 30 30 0 0 1 70 40"/>
  <path d="M1130 40 A 30 30 0 0 1 1160 70"/>
  <path d="M40 630 A 30 30 0 0 0 70 660"/>
  <path d="M1160 630 A 30 30 0 0 1 1130 660"/>
</svg>
